<svg width="1305" height="339" viewBox="0 0 1305 339" fill="none" xmlns="http://www.w3.org/2000/svg">
<rect width="1305" height="339" fill="#010101"/>
<path fill-rule="evenodd" clip-rule="evenodd" d="M20 63.0745C20 63.8421 30.1256 74.5548 55.4229 100.551C78.7147 124.487 90.957 137.408 91.1707 138.28C91.5698 139.91 90.7366 141.066 89.1627 141.066C88.5303 141.066 80.4433 138.504 71.1911 135.372C58.2655 130.998 54.2803 129.826 53.987 130.312C53.4955 131.127 54.1557 132.372 55.7703 133.673C59.2036 136.442 121.862 197.935 122.671 199.33C123.377 200.548 122.148 201.962 120.384 201.962C119.485 201.962 113.618 200.702 107.345 199.163C95.3692 196.224 92.586 195.819 92.586 197.016C92.586 197.878 103.193 207.459 154.813 253.224C168.083 264.988 174.143 269.242 183.478 273.344C195.697 278.713 212.162 279.512 225.062 275.359C230.432 273.631 238.411 269.422 243.093 265.848C247.58 262.422 254.284 255.417 256.999 251.316C261.231 244.924 264.461 237.127 266.091 229.363C267.307 223.572 267.302 210.647 266.083 204.908C263.033 190.558 256.414 179.394 244.353 168.255C241.761 165.861 232.88 158.046 224.618 150.888C216.356 143.73 206.381 135.073 202.453 131.65C189.63 120.479 157.666 93.3387 156.242 92.4145C155.285 91.7932 154.632 91.6572 154.143 91.9764C153.278 92.5417 155.045 96.0824 166.145 116.02C175.767 133.304 175.378 132.505 174.752 133.704C173.862 135.409 171.855 134.923 168.238 132.126C164.959 129.591 153.216 119.891 135.706 105.255C117.085 89.6899 113.318 86.5346 99.5998 75.014C86.2612 63.8121 83.2433 61.7299 83.2433 63.7282C83.2433 64.1741 85.6887 68.4427 88.6769 73.2141C103.442 96.7872 110.553 108.873 110.553 110.397C110.553 111.829 109.362 113.074 107.992 113.074C107.412 113.074 104.678 111.785 101.918 110.21C97.0327 107.423 39.8248 73.2421 27.4977 65.7446C24.1108 63.6849 21.0387 62 20.6703 62C20.3004 62 20 62.4813 20 63.0745ZM146.151 128.115C148.175 129.17 161.953 140.218 177.267 153.064C188.998 162.905 193.995 166.452 197.752 167.605C198.674 167.888 203.094 168.424 207.574 168.795C216.63 169.546 220.404 170.304 225.894 172.479C240.577 178.293 251.285 190.647 255.491 206.627C256.57 210.729 256.942 220.073 256.226 225.096C253.438 244.639 239.621 260.607 220.989 265.821C215.259 267.425 205.243 267.691 199.189 266.401C189.626 264.363 181.94 260.21 174.746 253.193C167.492 246.117 163.29 238.614 160.826 228.335C160.036 225.039 159.062 221.016 158.662 219.396C158.262 217.775 157.203 215.31 156.309 213.919C155.415 212.526 150.525 207.443 145.443 202.623C124.827 183.07 119.177 177.37 119.177 176.122C119.177 174.243 120.724 173.954 127.487 174.568C132.853 175.056 133.606 175.027 134.705 174.29C136.315 173.208 136.746 171.327 135.83 169.375C135.43 168.526 133.299 165.826 131.094 163.377C115.622 146.196 107.553 136.6 106.957 134.673C106.513 133.24 107.532 131.735 108.944 131.735C109.666 131.735 116.831 135.625 126.212 141.11C148.069 153.89 148.456 154.052 150.463 151.286L151.422 149.965L149.035 145.638C147.722 143.259 145.438 139.191 143.96 136.598C140.704 130.891 140.316 129.589 141.473 128.278C142.508 127.106 144.109 127.05 146.151 128.115Z" fill="white"/>
<path d="M209.25 256.482C229.383 256.482 245.684 239.756 245.684 219.15C245.684 198.544 229.383 181.818 209.25 181.818C189.117 181.818 172.816 198.544 172.816 219.15C172.816 239.756 189.117 256.482 209.25 256.482Z" fill="url(#paint0_linear_668_3626)"/>
<path d="M209.25 256.482C229.383 256.482 245.684 239.756 245.684 219.15C245.684 198.544 229.383 181.818 209.25 181.818C189.117 181.818 172.816 198.544 172.816 219.15C172.816 239.756 189.117 256.482 209.25 256.482Z" fill="url(#paint1_linear_668_3626)" fill-opacity="0.2"/>
<path d="M209.25 256.482C229.383 256.482 245.684 239.756 245.684 219.15C245.684 198.544 229.383 181.818 209.25 181.818C189.117 181.818 172.816 198.544 172.816 219.15C172.816 239.756 189.117 256.482 209.25 256.482Z" stroke="black"/>
<path d="M433.6 105C436.533 105 439.4 106.067 442.2 108.2C445.133 110.333 446.6 113.2 446.6 116.8C446.6 119.333 445.667 121.867 443.8 124.4L367.2 222.8L364.8 222H431.6C435.067 222 437.933 223.067 440.2 225.2C442.6 227.2 443.8 229.933 443.8 233.4C443.8 236.733 442.6 239.533 440.2 241.8C437.933 243.933 435.067 245 431.6 245H343.8C340.333 245 337.333 243.8 334.8 241.4C332.267 238.867 331 236.133 331 233.2C331 230.667 331.933 228.133 333.8 225.6L410.6 126.8L412.4 128H351.8C348.333 128 345.4 126.933 343 124.8C340.733 122.667 339.6 119.867 339.6 116.4C339.6 112.933 340.733 110.2 343 108.2C345.4 106.067 348.333 105 351.8 105H433.6ZM569.511 191.6C569.511 202.533 567.044 212.2 562.111 220.6C557.311 228.867 550.778 235.333 542.511 240C534.378 244.667 525.244 247 515.111 247C504.978 247 495.778 244.667 487.511 240C479.378 235.333 472.844 228.867 467.911 220.6C463.111 212.2 460.711 202.533 460.711 191.6C460.711 180.667 463.111 171.067 467.911 162.8C472.844 154.4 479.378 147.867 487.511 143.2C495.778 138.4 504.978 136 515.111 136C525.244 136 534.378 138.4 542.511 143.2C550.778 147.867 557.311 154.4 562.111 162.8C567.044 171.067 569.511 180.667 569.511 191.6ZM545.511 191.6C545.511 184.8 544.111 178.933 541.311 174C538.644 168.933 534.978 165 530.311 162.2C525.778 159.4 520.711 158 515.111 158C509.511 158 504.378 159.4 499.711 162.2C495.178 165 491.511 168.933 488.711 174C486.044 178.933 484.711 184.8 484.711 191.6C484.711 198.267 486.044 204.133 488.711 209.2C491.511 214.133 495.178 218 499.711 220.8C504.378 223.6 509.511 225 515.111 225C520.711 225 525.778 223.6 530.311 220.8C534.978 218 538.644 214.133 541.311 209.2C544.111 204.133 545.511 198.267 545.511 191.6ZM694.316 191.6C694.316 202.533 691.849 212.2 686.916 220.6C682.116 228.867 675.582 235.333 667.316 240C659.182 244.667 650.049 247 639.916 247C629.782 247 620.582 244.667 612.316 240C604.182 235.333 597.649 228.867 592.716 220.6C587.916 212.2 585.516 202.533 585.516 191.6C585.516 180.667 587.916 171.067 592.716 162.8C597.649 154.4 604.182 147.867 612.316 143.2C620.582 138.4 629.782 136 639.916 136C650.049 136 659.182 138.4 667.316 143.2C675.582 147.867 682.116 154.4 686.916 162.8C691.849 171.067 694.316 180.667 694.316 191.6ZM670.316 191.6C670.316 184.8 668.916 178.933 666.116 174C663.449 168.933 659.782 165 655.116 162.2C650.582 159.4 645.516 158 639.916 158C634.316 158 629.182 159.4 624.516 162.2C619.982 165 616.316 168.933 613.516 174C610.849 178.933 609.516 184.8 609.516 191.6C609.516 198.267 610.849 204.133 613.516 209.2C616.316 214.133 619.982 218 624.516 220.8C629.182 223.6 634.316 225 639.916 225C645.516 225 650.582 223.6 655.116 220.8C659.782 218 663.449 214.133 666.116 209.2C668.916 204.133 670.316 198.267 670.316 191.6ZM770.72 136C780.054 136 788.387 138.4 795.72 143.2C803.187 147.867 809.054 154.333 813.32 162.6C817.72 170.867 819.92 180.467 819.92 191.4C819.92 202.333 817.72 212 813.32 220.4C809.054 228.667 803.254 235.2 795.92 240C788.72 244.667 780.587 247 771.52 247C766.187 247 761.187 246.133 756.52 244.4C751.854 242.667 747.72 240.467 744.12 237.8C740.654 235.133 737.92 232.467 735.92 229.8C734.054 227 733.12 224.667 733.12 222.8L739.32 220.2V272.8C739.32 276.267 738.187 279.133 735.92 281.4C733.654 283.8 730.787 285 727.32 285C723.854 285 720.987 283.867 718.72 281.6C716.454 279.333 715.32 276.4 715.32 272.8V150.2C715.32 146.733 716.454 143.867 718.72 141.6C720.987 139.2 723.854 138 727.32 138C730.787 138 733.654 139.2 735.92 141.6C738.187 143.867 739.32 146.733 739.32 150.2V160L735.92 158.2C735.92 156.467 736.854 154.4 738.72 152C740.587 149.467 743.12 147 746.32 144.6C749.52 142.067 753.187 140 757.32 138.4C761.587 136.8 766.054 136 770.72 136ZM767.72 158C761.854 158 756.72 159.467 752.32 162.4C747.92 165.333 744.454 169.333 741.92 174.4C739.52 179.333 738.32 185 738.32 191.4C738.32 197.667 739.52 203.4 741.92 208.6C744.454 213.667 747.92 217.667 752.32 220.6C756.72 223.533 761.854 225 767.72 225C773.587 225 778.654 223.533 782.92 220.6C787.32 217.667 790.72 213.667 793.12 208.6C795.654 203.4 796.92 197.667 796.92 191.4C796.92 185 795.654 179.333 793.12 174.4C790.72 169.333 787.32 165.333 782.92 162.4C778.654 159.467 773.587 158 767.72 158ZM875.506 247C867.906 247 860.84 245.467 854.306 242.4C847.773 239.333 842.44 234.933 838.306 229.2C836.706 226.8 835.906 224.467 835.906 222.2C835.906 218.867 837.173 216.067 839.706 213.8C842.373 211.533 844.973 210.4 847.506 210.4C849.506 210.4 851.44 211 853.306 212.2C855.306 213.4 857.106 214.8 858.706 216.4C861.373 218.8 863.973 220.533 866.506 221.6C869.173 222.533 872.173 223 875.506 223C879.506 223 883.24 222 886.706 220C890.173 218 892.973 215.333 895.106 212C897.24 208.667 898.306 205.067 898.306 201.2V117.2C898.306 113.733 899.573 110.867 902.106 108.6C904.64 106.2 907.573 105 910.906 105C914.64 105 917.64 106.2 919.906 108.6C922.173 110.867 923.306 113.733 923.306 117.2V201.2C923.306 209.333 921.173 216.867 916.906 223.8C912.64 230.733 906.906 236.333 899.706 240.6C892.506 244.867 884.44 247 875.506 247ZM1055.06 191.6C1055.06 202.533 1052.59 212.2 1047.66 220.6C1042.86 228.867 1036.32 235.333 1028.06 240C1019.92 244.667 1010.79 247 1000.66 247C990.524 247 981.324 244.667 973.058 240C964.924 235.333 958.391 228.867 953.458 220.6C948.658 212.2 946.258 202.533 946.258 191.6C946.258 180.667 948.658 171.067 953.458 162.8C958.391 154.4 964.924 147.867 973.058 143.2C981.324 138.4 990.524 136 1000.66 136C1010.79 136 1019.92 138.4 1028.06 143.2C1036.32 147.867 1042.86 154.4 1047.66 162.8C1052.59 171.067 1055.06 180.667 1055.06 191.6ZM1031.06 191.6C1031.06 184.8 1029.66 178.933 1026.86 174C1024.19 168.933 1020.52 165 1015.86 162.2C1011.32 159.4 1006.26 158 1000.66 158C995.058 158 989.924 159.4 985.258 162.2C980.724 165 977.058 168.933 974.258 174C971.591 178.933 970.258 184.8 970.258 191.6C970.258 198.267 971.591 204.133 974.258 209.2C977.058 214.133 980.724 218 985.258 220.8C989.924 223.6 995.058 225 1000.66 225C1006.26 225 1011.32 223.6 1015.86 220.8C1020.52 218 1024.19 214.133 1026.86 209.2C1029.66 204.133 1031.06 198.267 1031.06 191.6ZM1131.46 136C1140.8 136 1149.13 138.4 1156.46 143.2C1163.93 147.867 1169.8 154.333 1174.06 162.6C1178.46 170.867 1180.66 180.467 1180.66 191.4C1180.66 202.333 1178.46 212 1174.06 220.4C1169.8 228.667 1164 235.2 1156.66 240C1149.46 244.667 1141.33 247 1132.26 247C1126.93 247 1121.93 246.133 1117.26 244.4C1112.6 242.667 1108.46 240.467 1104.86 237.8C1101.4 235.133 1098.66 232.467 1096.66 229.8C1094.8 227 1093.86 224.667 1093.86 222.8L1100.06 220.2V234.8C1100.06 238.267 1098.93 241.2 1096.66 243.6C1094.4 245.867 1091.53 247 1088.06 247C1084.6 247 1081.73 245.867 1079.46 243.6C1077.2 241.333 1076.06 238.4 1076.06 234.8V109.2C1076.06 105.733 1077.2 102.867 1079.46 100.6C1081.73 98.2 1084.6 97 1088.06 97C1091.53 97 1094.4 98.2 1096.66 100.6C1098.93 102.867 1100.06 105.733 1100.06 109.2V160L1096.66 158.2C1096.66 156.467 1097.6 154.4 1099.46 152C1101.33 149.467 1103.86 147 1107.06 144.6C1110.26 142.067 1113.93 140 1118.06 138.4C1122.33 136.8 1126.8 136 1131.46 136ZM1128.46 158C1122.6 158 1117.46 159.467 1113.06 162.4C1108.66 165.333 1105.2 169.333 1102.66 174.4C1100.26 179.333 1099.06 185 1099.06 191.4C1099.06 197.667 1100.26 203.4 1102.66 208.6C1105.2 213.667 1108.66 217.667 1113.06 220.6C1117.46 223.533 1122.6 225 1128.46 225C1134.33 225 1139.4 223.533 1143.66 220.6C1148.06 217.667 1151.46 213.667 1153.86 208.6C1156.4 203.4 1157.66 197.667 1157.66 191.4C1157.66 185 1156.4 179.333 1153.86 174.4C1151.46 169.333 1148.06 165.333 1143.66 162.4C1139.4 159.467 1134.33 158 1128.46 158ZM1195.45 228.4C1194.12 226.533 1193.52 224.133 1193.65 221.2C1193.78 218.267 1195.52 215.733 1198.85 213.6C1200.98 212.267 1203.25 211.733 1205.65 212C1208.05 212.133 1210.38 213.333 1212.65 215.6C1216.52 219.467 1220.58 222.467 1224.85 224.6C1229.12 226.733 1234.45 227.8 1240.85 227.8C1242.85 227.667 1245.05 227.4 1247.45 227C1249.85 226.467 1251.92 225.4 1253.65 223.8C1255.52 222.067 1256.45 219.467 1256.45 216C1256.45 213.067 1255.45 210.733 1253.45 209C1251.45 207.267 1248.78 205.8 1245.45 204.6C1242.25 203.4 1238.65 202.267 1234.65 201.2C1230.52 200 1226.25 198.667 1221.85 197.2C1217.58 195.733 1213.65 193.867 1210.05 191.6C1206.45 189.2 1203.52 186.067 1201.25 182.2C1198.98 178.333 1197.85 173.467 1197.85 167.6C1197.85 160.933 1199.72 155.267 1203.45 150.6C1207.18 145.933 1211.98 142.333 1217.85 139.8C1223.85 137.267 1230.12 136 1236.65 136C1240.78 136 1245.12 136.533 1249.65 137.6C1254.18 138.533 1258.52 140.133 1262.65 142.4C1266.78 144.533 1270.25 147.4 1273.05 151C1274.52 153 1275.38 155.4 1275.65 158.2C1275.92 161 1274.65 163.533 1271.85 165.8C1269.85 167.4 1267.52 168.133 1264.85 168C1262.18 167.733 1259.98 166.8 1258.25 165.2C1255.98 162.267 1252.92 159.933 1249.05 158.2C1245.32 156.467 1240.98 155.6 1236.05 155.6C1234.05 155.6 1231.85 155.867 1229.45 156.4C1227.18 156.8 1225.18 157.8 1223.45 159.4C1221.72 160.867 1220.85 163.267 1220.85 166.6C1220.85 169.667 1221.85 172.133 1223.85 174C1225.85 175.733 1228.52 177.2 1231.85 178.4C1235.32 179.467 1238.98 180.533 1242.85 181.6C1246.85 182.667 1250.92 183.933 1255.05 185.4C1259.18 186.867 1262.98 188.8 1266.45 191.2C1269.92 193.6 1272.72 196.733 1274.85 200.6C1276.98 204.333 1278.05 209.133 1278.05 215C1278.05 221.8 1276.05 227.6 1272.05 232.4C1268.05 237.2 1263.05 240.867 1257.05 243.4C1251.05 245.8 1244.92 247 1238.65 247C1230.78 247 1222.92 245.667 1215.05 243C1207.18 240.2 1200.65 235.333 1195.45 228.4Z" fill="white"/>
<defs>
<linearGradient id="paint0_linear_668_3626" x1="195.356" y1="208.1" x2="234.536" y2="242.742" gradientUnits="userSpaceOnUse">
<stop stop-color="white"/>
<stop offset="1" stop-color="#21D5F9"/>
</linearGradient>
<linearGradient id="paint1_linear_668_3626" x1="186.013" y1="191.894" x2="236.586" y2="241.473" gradientUnits="userSpaceOnUse">
<stop offset="0.17912" stop-color="#01FDDF"/>
<stop offset="1" stop-opacity="0"/>
</linearGradient>
</defs>
</svg>
