<svg width="1266" height="250" viewBox="0 0 1266 250" fill="none" xmlns="http://www.w3.org/2000/svg">
<path fill-rule="evenodd" clip-rule="evenodd" d="M0 18.0745C0 18.8421 10.1256 29.5548 35.4229 55.5514C58.7147 79.4869 70.957 92.408 71.1707 93.2797C71.5698 94.9097 70.7366 96.0662 69.1627 96.0662C68.5303 96.0662 60.4433 93.5042 51.1911 90.3725C38.2655 85.9978 34.2803 84.8255 33.987 85.3122C33.4955 86.1274 34.1557 87.3719 35.7703 88.6733C39.2036 91.4416 101.862 152.935 102.671 154.33C103.377 155.548 102.148 156.962 100.384 156.962C99.4855 156.962 93.6178 155.702 87.3452 154.163C75.3692 151.224 72.586 150.819 72.586 152.016C72.586 152.878 83.1927 162.459 134.813 208.224C148.083 219.988 154.143 224.242 163.478 228.344C175.697 233.713 192.162 234.512 205.062 230.359C210.432 228.631 218.411 224.422 223.093 220.848C227.58 217.422 234.284 210.417 236.999 206.316C241.231 199.924 244.461 192.127 246.091 184.363C247.307 178.572 247.302 165.647 246.083 159.908C243.033 145.558 236.414 134.394 224.353 123.255C221.761 120.861 212.88 113.046 204.618 105.888C196.356 98.7304 186.381 90.0734 182.453 86.65C169.63 75.4785 137.666 48.3387 136.242 47.4145C135.285 46.7932 134.632 46.6572 134.143 46.9764C133.278 47.5417 135.045 51.0824 146.145 71.0204C155.767 88.3045 155.378 87.5054 154.752 88.7042C153.862 90.4088 151.855 89.9226 148.238 87.1263C144.959 84.5908 133.216 74.8907 115.706 60.2551C97.0851 44.6899 93.3178 41.5346 79.5998 30.014C66.2612 18.8121 63.2433 16.7299 63.2433 18.7282C63.2433 19.1741 65.6887 23.4427 68.6769 28.2141C83.4423 51.7872 90.5529 63.873 90.5529 65.3973C90.5529 66.8294 89.3623 68.0738 87.9925 68.0738C87.4123 68.0738 84.6784 66.7852 81.9178 65.2103C77.0327 62.4233 19.8248 28.2421 7.49767 20.7446C4.11081 18.6849 1.03872 17 0.670284 17C0.300407 17 0 17.4813 0 18.0745ZM126.151 83.1151C128.175 84.1699 141.953 95.2176 157.267 108.064C168.998 117.905 173.995 121.452 177.752 122.605C178.674 122.888 183.094 123.424 187.574 123.795C196.63 124.546 200.404 125.304 205.894 127.479C220.577 133.293 231.285 145.647 235.491 161.627C236.57 165.729 236.942 175.073 236.226 180.096C233.438 199.639 219.621 215.607 200.989 220.821C195.259 222.425 185.243 222.691 179.189 221.401C169.626 219.363 161.94 215.21 154.746 208.193C147.492 201.117 143.29 193.614 140.826 183.335C140.036 180.039 139.062 176.016 138.662 174.396C138.262 172.775 137.203 170.31 136.309 168.919C135.415 167.526 130.525 162.443 125.443 157.623C104.827 138.07 99.1769 132.37 99.1769 131.122C99.1769 129.243 100.724 128.954 107.487 129.568C112.853 130.056 113.606 130.027 114.705 129.29C116.315 128.208 116.746 126.327 115.83 124.375C115.43 123.526 113.299 120.826 111.094 118.377C95.6224 101.196 87.5531 91.5997 86.9566 89.6726C86.513 88.2401 87.5316 86.7354 88.9445 86.7354C89.666 86.7354 96.8307 90.6254 106.212 96.1104C128.069 108.89 128.456 109.052 130.463 106.286L131.422 104.965L129.035 100.638C127.722 98.2589 125.438 94.1907 123.96 91.5982C120.704 85.8912 120.316 84.5893 121.473 83.2781C122.508 82.1063 124.109 82.0504 126.151 83.1151Z" fill="white"/>
<path d="M189.25 211.482C209.383 211.482 225.684 194.756 225.684 174.15C225.684 153.544 209.383 136.818 189.25 136.818C169.117 136.818 152.816 153.544 152.816 174.15C152.816 194.756 169.117 211.482 189.25 211.482Z" fill="url(#paint0_linear_667_3618)"/>
<path d="M189.25 211.482C209.383 211.482 225.684 194.756 225.684 174.15C225.684 153.544 209.383 136.818 189.25 136.818C169.117 136.818 152.816 153.544 152.816 174.15C152.816 194.756 169.117 211.482 189.25 211.482Z" fill="url(#paint1_linear_667_3618)" fill-opacity="0.2"/>
<path d="M189.25 211.482C209.383 211.482 225.684 194.756 225.684 174.15C225.684 153.544 209.383 136.818 189.25 136.818C169.117 136.818 152.816 153.544 152.816 174.15C152.816 194.756 169.117 211.482 189.25 211.482Z" stroke="black"/>
<path d="M413.6 60C416.533 60 419.4 61.0667 422.2 63.2C425.133 65.3333 426.6 68.2 426.6 71.8C426.6 74.3333 425.667 76.8667 423.8 79.4L347.2 177.8L344.8 177H411.6C415.067 177 417.933 178.067 420.2 180.2C422.6 182.2 423.8 184.933 423.8 188.4C423.8 191.733 422.6 194.533 420.2 196.8C417.933 198.933 415.067 200 411.6 200H323.8C320.333 200 317.333 198.8 314.8 196.4C312.267 193.867 311 191.133 311 188.2C311 185.667 311.933 183.133 313.8 180.6L390.6 81.8L392.4 83H331.8C328.333 83 325.4 81.9333 323 79.8C320.733 77.6667 319.6 74.8667 319.6 71.4C319.6 67.9333 320.733 65.2 323 63.2C325.4 61.0667 328.333 60 331.8 60H413.6ZM549.511 146.6C549.511 157.533 547.044 167.2 542.111 175.6C537.311 183.867 530.778 190.333 522.511 195C514.378 199.667 505.244 202 495.111 202C484.978 202 475.778 199.667 467.511 195C459.378 190.333 452.844 183.867 447.911 175.6C443.111 167.2 440.711 157.533 440.711 146.6C440.711 135.667 443.111 126.067 447.911 117.8C452.844 109.4 459.378 102.867 467.511 98.2C475.778 93.4 484.978 91 495.111 91C505.244 91 514.378 93.4 522.511 98.2C530.778 102.867 537.311 109.4 542.111 117.8C547.044 126.067 549.511 135.667 549.511 146.6ZM525.511 146.6C525.511 139.8 524.111 133.933 521.311 129C518.644 123.933 514.978 120 510.311 117.2C505.778 114.4 500.711 113 495.111 113C489.511 113 484.378 114.4 479.711 117.2C475.178 120 471.511 123.933 468.711 129C466.044 133.933 464.711 139.8 464.711 146.6C464.711 153.267 466.044 159.133 468.711 164.2C471.511 169.133 475.178 173 479.711 175.8C484.378 178.6 489.511 180 495.111 180C500.711 180 505.778 178.6 510.311 175.8C514.978 173 518.644 169.133 521.311 164.2C524.111 159.133 525.511 153.267 525.511 146.6ZM674.316 146.6C674.316 157.533 671.849 167.2 666.916 175.6C662.116 183.867 655.582 190.333 647.316 195C639.182 199.667 630.049 202 619.916 202C609.782 202 600.582 199.667 592.316 195C584.182 190.333 577.649 183.867 572.716 175.6C567.916 167.2 565.516 157.533 565.516 146.6C565.516 135.667 567.916 126.067 572.716 117.8C577.649 109.4 584.182 102.867 592.316 98.2C600.582 93.4 609.782 91 619.916 91C630.049 91 639.182 93.4 647.316 98.2C655.582 102.867 662.116 109.4 666.916 117.8C671.849 126.067 674.316 135.667 674.316 146.6ZM650.316 146.6C650.316 139.8 648.916 133.933 646.116 129C643.449 123.933 639.782 120 635.116 117.2C630.582 114.4 625.516 113 619.916 113C614.316 113 609.182 114.4 604.516 117.2C599.982 120 596.316 123.933 593.516 129C590.849 133.933 589.516 139.8 589.516 146.6C589.516 153.267 590.849 159.133 593.516 164.2C596.316 169.133 599.982 173 604.516 175.8C609.182 178.6 614.316 180 619.916 180C625.516 180 630.582 178.6 635.116 175.8C639.782 173 643.449 169.133 646.116 164.2C648.916 159.133 650.316 153.267 650.316 146.6ZM750.72 91C760.054 91 768.387 93.4 775.72 98.2C783.187 102.867 789.054 109.333 793.32 117.6C797.72 125.867 799.92 135.467 799.92 146.4C799.92 157.333 797.72 167 793.32 175.4C789.054 183.667 783.254 190.2 775.92 195C768.72 199.667 760.587 202 751.52 202C746.187 202 741.187 201.133 736.52 199.4C731.854 197.667 727.72 195.467 724.12 192.8C720.654 190.133 717.92 187.467 715.92 184.8C714.054 182 713.12 179.667 713.12 177.8L719.32 175.2V227.8C719.32 231.267 718.187 234.133 715.92 236.4C713.654 238.8 710.787 240 707.32 240C703.854 240 700.987 238.867 698.72 236.6C696.454 234.333 695.32 231.4 695.32 227.8V105.2C695.32 101.733 696.454 98.8667 698.72 96.6C700.987 94.2 703.854 93 707.32 93C710.787 93 713.654 94.2 715.92 96.6C718.187 98.8667 719.32 101.733 719.32 105.2V115L715.92 113.2C715.92 111.467 716.854 109.4 718.72 107C720.587 104.467 723.12 102 726.32 99.6C729.52 97.0667 733.187 95 737.32 93.4C741.587 91.8 746.054 91 750.72 91ZM747.72 113C741.854 113 736.72 114.467 732.32 117.4C727.92 120.333 724.454 124.333 721.92 129.4C719.52 134.333 718.32 140 718.32 146.4C718.32 152.667 719.52 158.4 721.92 163.6C724.454 168.667 727.92 172.667 732.32 175.6C736.72 178.533 741.854 180 747.72 180C753.587 180 758.654 178.533 762.92 175.6C767.32 172.667 770.72 168.667 773.12 163.6C775.654 158.4 776.92 152.667 776.92 146.4C776.92 140 775.654 134.333 773.12 129.4C770.72 124.333 767.32 120.333 762.92 117.4C758.654 114.467 753.587 113 747.72 113ZM855.506 202C847.906 202 840.84 200.467 834.306 197.4C827.773 194.333 822.44 189.933 818.306 184.2C816.706 181.8 815.906 179.467 815.906 177.2C815.906 173.867 817.173 171.067 819.706 168.8C822.373 166.533 824.973 165.4 827.506 165.4C829.506 165.4 831.44 166 833.306 167.2C835.306 168.4 837.106 169.8 838.706 171.4C841.373 173.8 843.973 175.533 846.506 176.6C849.173 177.533 852.173 178 855.506 178C859.506 178 863.24 177 866.706 175C870.173 173 872.973 170.333 875.106 167C877.24 163.667 878.306 160.067 878.306 156.2V72.2C878.306 68.7333 879.573 65.8667 882.106 63.6C884.64 61.2 887.573 60 890.906 60C894.64 60 897.64 61.2 899.906 63.6C902.173 65.8667 903.306 68.7333 903.306 72.2V156.2C903.306 164.333 901.173 171.867 896.906 178.8C892.64 185.733 886.906 191.333 879.706 195.6C872.506 199.867 864.44 202 855.506 202ZM1035.06 146.6C1035.06 157.533 1032.59 167.2 1027.66 175.6C1022.86 183.867 1016.32 190.333 1008.06 195C999.924 199.667 990.791 202 980.658 202C970.524 202 961.324 199.667 953.058 195C944.924 190.333 938.391 183.867 933.458 175.6C928.658 167.2 926.258 157.533 926.258 146.6C926.258 135.667 928.658 126.067 933.458 117.8C938.391 109.4 944.924 102.867 953.058 98.2C961.324 93.4 970.524 91 980.658 91C990.791 91 999.924 93.4 1008.06 98.2C1016.32 102.867 1022.86 109.4 1027.66 117.8C1032.59 126.067 1035.06 135.667 1035.06 146.6ZM1011.06 146.6C1011.06 139.8 1009.66 133.933 1006.86 129C1004.19 123.933 1000.52 120 995.858 117.2C991.324 114.4 986.258 113 980.658 113C975.058 113 969.924 114.4 965.258 117.2C960.724 120 957.058 123.933 954.258 129C951.591 133.933 950.258 139.8 950.258 146.6C950.258 153.267 951.591 159.133 954.258 164.2C957.058 169.133 960.724 173 965.258 175.8C969.924 178.6 975.058 180 980.658 180C986.258 180 991.324 178.6 995.858 175.8C1000.52 173 1004.19 169.133 1006.86 164.2C1009.66 159.133 1011.06 153.267 1011.06 146.6ZM1111.46 91C1120.8 91 1129.13 93.4 1136.46 98.2C1143.93 102.867 1149.8 109.333 1154.06 117.6C1158.46 125.867 1160.66 135.467 1160.66 146.4C1160.66 157.333 1158.46 167 1154.06 175.4C1149.8 183.667 1144 190.2 1136.66 195C1129.46 199.667 1121.33 202 1112.26 202C1106.93 202 1101.93 201.133 1097.26 199.4C1092.6 197.667 1088.46 195.467 1084.86 192.8C1081.4 190.133 1078.66 187.467 1076.66 184.8C1074.8 182 1073.86 179.667 1073.86 177.8L1080.06 175.2V189.8C1080.06 193.267 1078.93 196.2 1076.66 198.6C1074.4 200.867 1071.53 202 1068.06 202C1064.6 202 1061.73 200.867 1059.46 198.6C1057.2 196.333 1056.06 193.4 1056.06 189.8V64.2C1056.06 60.7333 1057.2 57.8667 1059.46 55.6C1061.73 53.2 1064.6 52 1068.06 52C1071.53 52 1074.4 53.2 1076.66 55.6C1078.93 57.8667 1080.06 60.7333 1080.06 64.2V115L1076.66 113.2C1076.66 111.467 1077.6 109.4 1079.46 107C1081.33 104.467 1083.86 102 1087.06 99.6C1090.26 97.0667 1093.93 95 1098.06 93.4C1102.33 91.8 1106.8 91 1111.46 91ZM1108.46 113C1102.6 113 1097.46 114.467 1093.06 117.4C1088.66 120.333 1085.2 124.333 1082.66 129.4C1080.26 134.333 1079.06 140 1079.06 146.4C1079.06 152.667 1080.26 158.4 1082.66 163.6C1085.2 168.667 1088.66 172.667 1093.06 175.6C1097.46 178.533 1102.6 180 1108.46 180C1114.33 180 1119.4 178.533 1123.66 175.6C1128.06 172.667 1131.46 168.667 1133.86 163.6C1136.4 158.4 1137.66 152.667 1137.66 146.4C1137.66 140 1136.4 134.333 1133.86 129.4C1131.46 124.333 1128.06 120.333 1123.66 117.4C1119.4 114.467 1114.33 113 1108.46 113ZM1175.45 183.4C1174.12 181.533 1173.52 179.133 1173.65 176.2C1173.78 173.267 1175.52 170.733 1178.85 168.6C1180.98 167.267 1183.25 166.733 1185.65 167C1188.05 167.133 1190.38 168.333 1192.65 170.6C1196.52 174.467 1200.58 177.467 1204.85 179.6C1209.12 181.733 1214.45 182.8 1220.85 182.8C1222.85 182.667 1225.05 182.4 1227.45 182C1229.85 181.467 1231.92 180.4 1233.65 178.8C1235.52 177.067 1236.45 174.467 1236.45 171C1236.45 168.067 1235.45 165.733 1233.45 164C1231.45 162.267 1228.78 160.8 1225.45 159.6C1222.25 158.4 1218.65 157.267 1214.65 156.2C1210.52 155 1206.25 153.667 1201.85 152.2C1197.58 150.733 1193.65 148.867 1190.05 146.6C1186.45 144.2 1183.52 141.067 1181.25 137.2C1178.98 133.333 1177.85 128.467 1177.85 122.6C1177.85 115.933 1179.72 110.267 1183.45 105.6C1187.18 100.933 1191.98 97.3333 1197.85 94.8C1203.85 92.2667 1210.12 91 1216.65 91C1220.78 91 1225.12 91.5333 1229.65 92.6C1234.18 93.5333 1238.52 95.1333 1242.65 97.4C1246.78 99.5333 1250.25 102.4 1253.05 106C1254.52 108 1255.38 110.4 1255.65 113.2C1255.92 116 1254.65 118.533 1251.85 120.8C1249.85 122.4 1247.52 123.133 1244.85 123C1242.18 122.733 1239.98 121.8 1238.25 120.2C1235.98 117.267 1232.92 114.933 1229.05 113.2C1225.32 111.467 1220.98 110.6 1216.05 110.6C1214.05 110.6 1211.85 110.867 1209.45 111.4C1207.18 111.8 1205.18 112.8 1203.45 114.4C1201.72 115.867 1200.85 118.267 1200.85 121.6C1200.85 124.667 1201.85 127.133 1203.85 129C1205.85 130.733 1208.52 132.2 1211.85 133.4C1215.32 134.467 1218.98 135.533 1222.85 136.6C1226.85 137.667 1230.92 138.933 1235.05 140.4C1239.18 141.867 1242.98 143.8 1246.45 146.2C1249.92 148.6 1252.72 151.733 1254.85 155.6C1256.98 159.333 1258.05 164.133 1258.05 170C1258.05 176.8 1256.05 182.6 1252.05 187.4C1248.05 192.2 1243.05 195.867 1237.05 198.4C1231.05 200.8 1224.92 202 1218.65 202C1210.78 202 1202.92 200.667 1195.05 198C1187.18 195.2 1180.65 190.333 1175.45 183.4Z" fill="white"/>
<defs>
<linearGradient id="paint0_linear_667_3618" x1="175.356" y1="163.1" x2="214.536" y2="197.742" gradientUnits="userSpaceOnUse">
<stop stop-color="white"/>
<stop offset="1" stop-color="#21D5F9"/>
</linearGradient>
<linearGradient id="paint1_linear_667_3618" x1="166.013" y1="146.894" x2="216.586" y2="196.473" gradientUnits="userSpaceOnUse">
<stop offset="0.17912" stop-color="#01FDDF"/>
<stop offset="1" stop-opacity="0"/>
</linearGradient>
</defs>
</svg>
