<?xml version="1.0" encoding="UTF-8"?>
<svg width="32" height="32" viewBox="0 0 250 250" fill="none" xmlns="http://www.w3.org/2000/svg">
<path fill-rule="evenodd" clip-rule="evenodd" d="M0 18.0745C0 18.8421 10.1256 29.5548 35.4229 55.5514C58.7147 79.4869 70.957 92.408 71.1707 93.2797C71.5698 94.9097 70.7366 96.0662 69.1627 96.0662C68.5303 96.0662 60.4433 93.5042 51.1911 90.3725C38.2655 85.9978 34.2803 84.8255 33.987 85.3122C33.4955 86.1274 34.1557 87.3719 35.7703 88.6733C39.2036 91.4416 101.862 152.935 102.671 154.33C103.377 155.548 102.148 156.962 100.384 156.962C99.4855 156.962 93.6178 155.702 87.3452 154.163C75.3692 151.224 72.586 150.819 72.586 152.016C72.586 152.878 83.1927 162.459 134.813 208.224C148.083 219.988 154.143 224.242 163.478 228.344C175.697 233.713 192.162 234.512 205.062 230.359C210.432 228.631 218.411 224.422 223.093 220.848C227.58 217.422 234.284 210.417 236.999 206.316C241.231 199.924 244.461 192.127 246.091 184.363C247.307 178.572 247.302 165.647 246.083 159.908C243.033 145.558 236.414 134.394 224.353 123.255C221.761 120.861 212.88 113.046 204.618 105.888C196.356 98.7304 186.381 90.0734 182.453 86.65C169.63 75.4785 137.666 48.3387 136.242 47.4145C135.285 46.7932 134.632 46.6572 134.143 46.9764C133.278 47.5417 135.045 51.0824 146.145 71.0204C155.767 88.3045 155.378 87.5054 154.752 88.7042C153.862 90.4088 151.855 89.9226 148.238 87.1263C144.959 84.5908 133.216 74.8907 115.706 60.2551C97.0851 44.6899 93.3178 41.5346 79.5998 30.014C66.2612 18.8121 63.2433 16.7299 63.2433 18.7282C63.2433 19.1741 65.6887 23.4427 68.6769 28.2141C83.4423 51.7872 90.5529 63.873 90.5529 65.3973C90.5529 66.8294 89.3623 68.0738 87.9925 68.0738C87.4123 68.0738 84.6784 66.7852 81.9178 65.2103C77.0327 62.4233 19.8248 28.2421 7.49767 20.7446C4.11081 18.6849 1.03872 17 0.670284 17C0.300407 17 0 17.4813 0 18.0745Z" fill="white"/>
<path d="M189.25 211.482C209.383 211.482 225.684 194.756 225.684 174.15C225.684 153.544 209.383 136.818 189.25 136.818C169.117 136.818 152.816 153.544 152.816 174.15C152.816 194.756 169.117 211.482 189.25 211.482Z" fill="url(#paint0_linear_667_3618)"/>
<path d="M189.25 211.482C209.383 211.482 225.684 194.756 225.684 174.15C225.684 153.544 209.383 136.818 189.25 136.818C169.117 136.818 152.816 153.544 152.816 174.15C152.816 194.756 169.117 211.482 189.25 211.482Z" fill="url(#paint1_linear_667_3618)" fill-opacity="0.2"/>
<defs>
<linearGradient id="paint0_linear_667_3618" x1="175.356" y1="163.1" x2="214.536" y2="197.742" gradientUnits="userSpaceOnUse">
<stop stop-color="white"/>
<stop offset="1" stop-color="#21D5F9"/>
</linearGradient>
<linearGradient id="paint1_linear_667_3618" x1="166.013" y1="146.894" x2="216.586" y2="196.473" gradientUnits="userSpaceOnUse">
<stop offset="0.17912" stop-color="#01FDDF"/>
<stop offset="1" stop-opacity="0"/>
</linearGradient>
</defs>
</svg> 